<?xml version="1.0" ?><!DOCTYPE svg  PUBLIC '-//W3C//DTD SVG 1.1//EN'  'http://www.w3.org/Graphics/SVG/1.1/DTD/svg11.dtd'><svg height="512px" style="enable-background:new 0 0 512 512;" version="1.1" viewBox="0 0 512 512" width="512px" xml:space="preserve" xmlns="http://www.w3.org/2000/svg" xmlns:xlink="http://www.w3.org/1999/xlink"><g id="_x35_06_x2C__growth__x2C__knowledge_x2C__growth_knowledge_x2C__education"><g><path d="M481,356.67v108.66c0,8.66-7.01,15.67-15.67,15.67H306.67c-8.66,0-15.67-7.01-15.67-15.67V356.67    c0-8.66,7.01-15.67,15.67-15.67H401h40h24.33C473.99,341,481,348.01,481,356.67z" style="fill:#FF7979;"/><path d="M299.5,474.33V365.67c0-8.66,7.01-15.67,15.67-15.67h94.33h40h24.33    c2.203,0,4.297,0.458,6.198,1.277C477.83,345.281,472.092,341,465.33,341H441h-40h-94.33c-8.66,0-15.67,7.01-15.67,15.67v108.66    c0,6.457,3.899,11.992,9.472,14.393C299.854,478.039,299.5,476.229,299.5,474.33z" style="fill:#D65B5B;"/><polygon points="421,409 361,441 361,381   " style="fill:#E8F9F9;"/><polygon points="368.125,393 412.325,413.627 421,409 361,381 361,441 368.125,437.2   " style="fill:#CCE5E4;"/><path d="M451,31v230H261V99c0-37.56,30.44-68,68-68H451z" style="fill:#FCD884;"/><path d="M269.5,109c0-37.56,30.44-68,68-68H451V31H329c-37.56,0-68,30.44-68,68v162h8.5V109z" style="fill:#EABF6A;"/><path d="M261,99v162H71V31h122C230.56,31,261,61.44,261,99z M221,191v-20h-20v20H221z M191,191v-20h-20v20    H191z M161,191v-20h-20v20H161z M131,191v-20h-20v20H131z" style="fill:#FFEBBE;"/><g><g><g><path d="M81,42h122c17.271,0,33.026,6.448,45.019,17.053C235.658,42.057,215.627,31,193,31H71v230h10V42       z" style="fill:#E5D0A8;"/></g></g></g><rect height="60" style="fill:#5165A2;" width="110" x="301" y="151"/><polygon points="310.666,161 411,161 411,151 301,151 301,211 310.666,211   " style="fill:#354B77;"/><rect height="20" width="20" x="201" y="171"/><rect height="20" width="20" x="171" y="171"/><rect height="20" width="20" x="141" y="171"/><rect height="20" width="20" x="111" y="171"/><path d="M261,266H71c-2.761,0-5-2.238-5-5V31c0-2.761,2.239-5,5-5h122c40.252,0,73,32.748,73,73c0,2.761-2.238,5-5,5s-5-2.239-5-5    c0-34.738-28.262-63-63-63H76v220h185c2.762,0,5,2.238,5,5S263.762,266,261,266z"/><path d="M451,266H261c-2.762,0-5-2.238-5-5V99c0-40.252,32.748-73,73-73h122c2.762,0,5,2.239,5,5v230    C456,263.762,453.762,266,451,266z M266,256h180V36H329c-34.738,0-63,28.262-63,63V256z"/><path d="M411,216H301c-2.762,0-5-2.239-5-5v-60c0-2.761,2.238-5,5-5h110c2.762,0,5,2.239,5,5v60C416,213.761,413.762,216,411,216z     M306,206h100v-50H306V206z"/><path d="M411,126H301c-2.762,0-5-2.239-5-5s2.238-5,5-5h110c2.762,0,5,2.239,5,5S413.762,126,411,126z"/><path d="M411,96H301c-2.762,0-5-2.239-5-5s2.238-5,5-5h110c2.762,0,5,2.239,5,5S413.762,96,411,96z"/><path d="M221,96H111c-2.761,0-5-2.239-5-5s2.239-5,5-5h110c2.761,0,5,2.239,5,5S223.761,96,221,96z"/><path d="M171,126h-60c-2.761,0-5-2.239-5-5s2.239-5,5-5h60c2.761,0,5,2.239,5,5S173.761,126,171,126z"/><path d="M221,156h-60c-2.761,0-5-2.239-5-5s2.239-5,5-5h60c2.761,0,5,2.239,5,5S223.761,156,221,156z"/><path d="M121,158h-10c-2.761,0-5-2.239-5-5s2.239-5,5-5h10c2.761,0,5,2.239,5,5S123.761,158,121,158z"/><path d="M221,216H111c-2.761,0-5-2.239-5-5s2.239-5,5-5h110c2.761,0,5,2.239,5,5S223.761,216,221,216z"/><path d="M491,306H291c-1.574,0-3.056-0.741-4-2l-30-40c-1.657-2.209-1.209-5.343,1-7c2.21-1.656,5.343-1.209,7,1l28.5,38H486V81    c0-2.761,2.238-5,5-5s5,2.239,5,5v220C496,303.762,493.762,306,491,306z"/><path d="M231,306H31c-2.761,0-5-2.238-5-5V81c0-2.761,2.239-5,5-5s5,2.239,5,5v215h192.5l28.5-38c1.657-2.208,4.791-2.657,7-1    s2.657,4.791,1,7l-30,40C234.056,305.259,232.574,306,231,306z"/><path d="M465.33,486H306.67c-11.397,0-20.67-9.272-20.67-20.67V356.67c0-11.397,9.272-20.67,20.67-20.67h158.66    c11.397,0,20.67,9.272,20.67,20.67v108.66C486,476.728,476.728,486,465.33,486z M306.67,346c-5.884,0-10.67,4.786-10.67,10.67    v108.66c0,5.884,4.786,10.67,10.67,10.67h158.66c5.884,0,10.67-4.786,10.67-10.67V356.67c0-5.884-4.786-10.67-10.67-10.67H306.67z    "/><path d="M361,446c-0.892,0-1.782-0.238-2.572-0.713C356.922,444.384,356,442.756,356,441v-60c0-1.709,0.873-3.3,2.314-4.218    c1.442-0.916,3.252-1.034,4.8-0.313l60,28c1.717,0.802,2.833,2.504,2.884,4.398c0.051,1.894-0.974,3.653-2.646,4.545l-60,32    C362.616,445.805,361.808,446,361,446z M366,388.851v43.816l43.815-23.369L366,388.851z"/><path d="M441,346c-2.762,0-5-2.238-5-5v-40c0-2.762,2.238-5,5-5s5,2.238,5,5v40C446,343.762,443.762,346,441,346z"/><path d="M401,346c-2.762,0-5-2.238-5-5v-40c0-2.762,2.238-5,5-5s5,2.238,5,5v40C406,343.762,403.762,346,401,346z"/><path d="M251,486H51c-2.761,0-5-2.238-5-5s2.239-5,5-5h200c2.761,0,5,2.238,5,5S253.761,486,251,486z"/><path d="M250.996,436.001c-0.789,0-1.589-0.188-2.335-0.582l-170-90c-2.44-1.292-3.372-4.318-2.08-6.759    c1.292-2.439,4.319-3.369,6.758-2.079l170,90c2.44,1.292,3.372,4.318,2.08,6.759C254.522,435.034,252.789,436.001,250.996,436.001    z"/></g></g><g id="Layer_1"/></svg>